<svg viewBox="0 0 237 191" xmlns="http://www.w3.org/2000/svg" xml:space="preserve" style="fill-rule:evenodd;clip-rule:evenodd;stroke-linecap:round;stroke-linejoin:round;stroke-miterlimit:2"><path d="M160.783 80.253c-3.788 6.161-10.553 11.675-19.442 16.125-14.133 7.063-33.675 11.442-55.247 11.442-21.577 0-41.11-4.379-55.252-11.442C16.7 89.309 7.958 79.54 7.958 68.749c0-10.786 8.742-20.554 22.884-27.623 14.142-7.074 33.675-11.442 55.252-11.442 21.572 0 41.11 4.368 55.247 11.442 10.971 5.481 18.696 12.592 21.605 20.54" style="fill:none;stroke:#000;stroke-width:8px"/><path d="M118.866 61.115c0 4.525-3.67 8.623-9.603 11.585-5.928 2.966-14.123 4.801-23.169 4.801-9.051 0-17.246-1.835-23.174-4.801-5.928-2.962-9.598-7.06-9.598-11.585 0-4.521 3.67-8.623 9.598-11.589 5.928-2.962 14.123-4.792 23.174-4.792 9.046 0 17.241 1.83 23.169 4.792 5.933 2.966 9.603 7.068 9.603 11.589ZM86.094 4v51.472M86.017 124.856l.077 61.656" style="fill:none;stroke:#000;stroke-width:8px"/><path d="M140.956 67.756c42.954-11.509 48.208-12.911 91.167-24.425" style="fill:none;stroke:#000;stroke-width:8.33px"/><path d="M140.956 62.375a5.383 5.383 0 1 1 0 10.767 5.384 5.384 0 1 1 0-10.767Z" style="fill:none;stroke:#000;stroke-width:8.33px;stroke-linecap:butt;stroke-linejoin:miter"/><path d="M160.616 80.509c-2.497 10.647-10.056 21.422-23.423 28.89-14.411 8.05-31.417 11.888-52.956 13.165-21.539 1.276-41.546-2.838-56.007-7.883-14.466-5.044-23.674-12.655-24.206-21.629-.266-4.489 1.664-8.894 5.377-13.016" style="fill:none;stroke:#000;stroke-width:8px"/></svg>