<svg viewBox="0 0 186 178" xmlns="http://www.w3.org/2000/svg" xml:space="preserve" style="fill-rule:evenodd;clip-rule:evenodd;stroke-linecap:round;stroke-linejoin:round;stroke-miterlimit:2"><path d="M92.99 113.179v60.654M92.99 48.379V4M4.29 82.046c1.958 12.245 13.662 21.741 31.004 27.2 17.333 5.458 40.304 6.862 64.8 2.941 24.496-3.921 45.875-12.437 60.642-23.037 14.762-10.596 22.916-23.275 20.954-35.525-1.959-12.246-13.667-21.742-31.004-27.196-17.334-5.454-40.305-6.867-64.8-2.942-24.496 3.921-45.875 12.438-60.642 23.034C10.477 57.116 2.323 69.796 4.29 82.046Z" style="fill:none;stroke:#000;stroke-width:8px"/><path d="M65.173 57.254c.617 3.837 4.288 6.821 9.721 8.529 5.437 1.708 12.642 2.154 20.321.921 7.683-1.229 14.387-3.9 19.016-7.221 4.63-3.321 7.184-7.296 6.571-11.137-.612-3.842-4.287-6.821-9.725-8.53-5.433-1.712-12.637-2.158-20.316-.925-7.68 1.23-14.388 3.905-19.013 7.225-4.633 3.321-7.192 7.3-6.575 11.138Z" style="fill:none;stroke:#000;stroke-width:8px"/></svg>