<svg viewBox="0 0 209 210" xmlns="http://www.w3.org/2000/svg" xml:space="preserve" style="fill-rule:evenodd;clip-rule:evenodd;stroke-linecap:round;stroke-linejoin:round;stroke-miterlimit:2"><path d="m46.163 104.371 14.017-1.595M49.918 136.937l13.978-1.595M60.18 102.776c2.252-.258 4.496 1.33 6.303 4.111 1.813 2.781 3.187 6.744 3.698 11.242.516 4.499.066 8.675-1.073 11.792-1.134 3.114-2.961 5.168-5.212 5.421M46.158 104.37c-2.247.258-4.074 2.313-5.213 5.425-1.139 3.118-1.584 7.295-1.073 11.793.512 4.493 1.89 8.462 3.698 11.242 1.808 2.776 4.056 4.369 6.302 4.115" style="fill:none;stroke:#000;stroke-width:8.33px"/><path d="M32.384 175.583c-9.088-18.17-14.709-43.274-14.709-71.004 0-27.729 5.621-52.833 14.709-71 9.083-18.17 21.633-29.412 35.5-29.412 13.862 0 26.412 11.237 35.5 29.412 9.087 18.167 14.704 43.271 14.704 71 0 27.73-5.621 52.834-14.704 71.004-9.088 18.167-21.638 29.409-35.5 29.409M67.884 4.167h86.458M68.171 204.992h86.171M154.342 4.167c13.867 0 26.417 11.237 35.504 29.412 9.088 18.167 14.704 43.271 14.704 71 0 27.73-5.616 52.834-14.704 71.004-9.087 18.167-21.637 29.409-35.504 29.409M118.088 104.579h86.462M57.83 138.257l5.912 49.652M4.167 204.992h68.029" style="fill:none;stroke:#000;stroke-width:8.33px"/><path d="M4.167 204.992c21.246-5.696 38.329-11.388 59.575-17.079M103.384 33.575h86.462M103.384 175.583h86.462" style="fill:none;stroke:#000;stroke-width:8.33px"/></svg>