<svg viewBox="0 0 181 190" xmlns="http://www.w3.org/2000/svg" xml:space="preserve" style="fill-rule:evenodd;clip-rule:evenodd;stroke-linecap:round;stroke-linejoin:round;stroke-miterlimit:2"><path d="m16.577 100.167 79.084 21.192M63.165 10.913l57.892 57.891M11.477 119.213l79.08 21.187M49.219 24.854l26.088 26.088M20.148 141.946l65.309 17.5M45.369 48.879l15.959 15.963M36.036 166.613l62.291 16.691M98.327 183.304c26.388 7.071 53.505-8.587 60.58-34.97 5.816-21.717-3.746-44.621-23.263-55.763L88.798 65.517" style="fill:none;stroke:#000;stroke-width:8.33px"/><path d="M159.711 126.234a49.07 49.07 0 0 0 9.133-10.48c10.029-15.42 10.792-35.512 1.229-51.891l-27.041-46.85M41.952 147.788c-5.258-1.409-10.662 1.712-12.074 6.971-1.409 5.258 1.712 10.666 6.974 12.075M61.328 64.842c-3.851-3.85-10.092-3.85-13.942 0a9.853 9.853 0 0 0-2.583 9.4M25.248 122.9c-5.254-1.408-10.662 1.713-12.07 6.975-1.409 5.259 1.712 10.663 6.97 12.071M59.307 34.938c-3.85-3.85-10.096-3.85-13.938 0a9.85 9.85 0 0 0 0 13.941M16.577 100.167c-5.254-1.408-10.662 1.712-12.07 6.971-1.413 5.258 1.708 10.666 6.97 12.075M63.165 10.913a9.863 9.863 0 0 0-13.946 0c-3.846 3.85-3.846 10.091 0 13.941M35.457 84.813l65.304 17.5M87.19 7.059l47.804 47.804M35.457 84.813c-5.259-1.409-10.663 1.712-12.075 6.975-1.409 5.254 1.712 10.662 6.975 12.071M87.19 7.054c-3.85-3.85-10.092-3.85-13.942 0-3.85 3.85-3.85 10.092 0 13.942M88.798 65.513c-4.712-2.721-10.746-1.104-13.466 3.612a9.852 9.852 0 0 0 1.312 11.634M143.032 17.013c-2.721-4.717-8.75-6.329-13.463-3.609a9.856 9.856 0 0 0-4.683 10.734M76.64 80.763l24.121 21.55M124.886 24.138l10.108 30.725" style="fill:none;stroke:#000;stroke-width:8.33px"/></svg>