<svg viewBox="0 0 195 278" xmlns="http://www.w3.org/2000/svg" xml:space="preserve" style="fill-rule:evenodd;clip-rule:evenodd;stroke-linecap:round;stroke-linejoin:round;stroke-miterlimit:2"><path d="M173.296 41.983c0 10.488-8.505 19.984-22.255 26.859-13.745 6.874-32.737 11.124-53.716 11.124s-39.975-4.25-53.721-11.124c-13.746-6.875-22.25-16.371-22.25-26.859 0-10.492 8.504-19.987 22.25-26.858C57.35 8.25 76.346 4 97.325 4s39.971 4.25 53.716 11.125c13.75 6.871 22.255 16.366 22.255 26.858ZM173.296 41.983v135.321M21.354 41.983v135.321M173.296 177.304c0 10.492-8.505 19.988-22.255 26.862-13.745 6.875-32.737 11.125-53.716 11.125s-39.975-4.254-53.721-11.125c-13.746-6.874-22.25-16.37-22.25-26.862M151.046 68.842v135.324M43.604 68.842v134.645M97.325 79.971v135.32M21.35 177.304c0 43.929-.704 35.087-17.35 66.146M97.325 215.291v58.396M173.296 177.304c0 43.929.708 35.087 17.354 66.146" style="fill:none;stroke:#000;stroke-width:8px"/></svg>