<svg viewBox="0 0 217 198" xmlns="http://www.w3.org/2000/svg" xml:space="preserve" style="fill-rule:evenodd;clip-rule:evenodd;stroke-linecap:round;stroke-linejoin:round;stroke-miterlimit:2"><path d="M160.267 68.745c0 10.786-8.742 20.554-22.884 27.623-14.138 7.073-33.671 11.447-55.247 11.447-21.577 0-41.115-4.374-55.252-11.447C12.746 89.299 4 79.531 4 68.745c0-10.791 8.746-20.555 22.884-27.629 14.137-7.064 33.675-11.442 55.252-11.442 21.576 0 41.109 4.378 55.247 11.442 14.137 7.074 22.884 16.838 22.884 27.629Z" style="fill:none;stroke:#000;stroke-width:8px"/><path d="M154.13 84.275c3.95 4.668 6.137 9.811 6.137 15.207 0 10.786-8.742 20.554-22.884 27.623-14.138 7.074-33.671 11.442-55.247 11.442-21.577 0-41.115-4.373-55.252-11.442C12.746 120.036 4 110.268 4 99.482c0-5.396 2.187-10.534 6.142-15.207M114.907 61.11c0 4.526-3.67 8.623-9.597 11.59-5.933 2.961-14.128 4.796-23.174 4.796-9.051 0-17.247-1.835-23.174-4.796-5.933-2.967-9.598-7.064-9.598-11.59 0-4.525 3.665-8.623 9.598-11.585 5.927-2.966 14.123-4.801 23.174-4.801 9.046 0 17.241 1.835 23.174 4.801 5.927 2.962 9.597 7.06 9.597 11.585ZM82.136 4v51.468M82.136 138.547v54.938M201.547 27.407v42.526M212.181 51.517l-10.634 18.416M190.918 51.517l10.629 18.416M201.547 140.377V97.851M212.181 116.267l-10.634-18.416M190.918 116.267l10.629-18.416" style="fill:none;stroke:#000;stroke-width:8px"/></svg>