<svg viewBox="0 0 184 194" xmlns="http://www.w3.org/2000/svg" xml:space="preserve" style="fill-rule:evenodd;clip-rule:evenodd;stroke-linecap:round;stroke-linejoin:round;stroke-miterlimit:2"><path d="M32.05 26.009c-2.718 10.148 3.046 21.535 14.565 31.753C58.134 67.975 75.407 77.009 95.702 82.45c20.294 5.44 39.774 6.245 54.856 3.163 15.082-3.087 25.771-10.071 28.488-20.219 2.723-10.152-3.046-21.539-14.56-31.752-11.519-10.214-28.792-19.253-49.092-24.688-20.289-5.441-39.774-6.25-54.856-3.163S34.772 15.857 32.05 26.009ZM32.05 26.009 4.665 128.211M179.046 65.394l-27.385 102.207M4.665 128.211c-2.718 10.153 3.046 21.545 14.56 31.758 11.519 10.213 28.792 19.252 49.092 24.688 20.294 5.44 39.774 6.25 54.851 3.163 15.082-3.087 25.776-10.067 28.493-20.219M46.615 57.762l-27.39 102.207M150.558 85.613l-27.39 102.207M95.702 82.45 68.317 184.657" style="fill:none;stroke:#000;stroke-width:8px"/></svg>