<svg viewBox="0 0 211 233" xmlns="http://www.w3.org/2000/svg" xml:space="preserve" style="fill-rule:evenodd;clip-rule:evenodd;stroke-linecap:round;stroke-linejoin:round;stroke-miterlimit:2"><path d="M31.03 47.443c0-4.799 4.586-9.146 12.006-12.291 7.416-3.147 17.663-5.091 28.983-5.091 11.319 0 21.569 1.946 28.985 5.091 7.417 3.145 12.006 7.492 12.006 12.291M39.34 91.084a42.284 42.284 0 0 1 4.585-1.621c7.189-2.124 17.122-3.436 28.094-3.436 10.972 0 20.907 1.313 28.096 3.436a42.339 42.339 0 0 1 4.584 1.621" style="fill:none;stroke:#000;stroke-width:6.25px"/><path d="M79.401 129.94H65.023c-.901 0-1.632-1.525-1.632-3.404 0-1.878.731-3.403 1.632-3.403h14.378c.901 0 1.633 1.525 1.633 3.403 0 1.879-.732 3.404-1.633 3.404ZM83.264 207.074H61.161c-1.08 0-1.957-1.525-1.957-3.403 0-1.878.877-3.403 1.957-3.403h22.103c1.08 0 1.957 1.525 1.957 3.403 0 1.878-.877 3.403-1.957 3.403Z" style="fill-rule:nonzero"/><path d="M51.302 100.672c7.342 5.901 17.271 15.928 16.521 26.153l-1.867 25.862c-1.23 16.887-1.839 39.575-1.839 56.527 0 8.717.412 15.812 8.107 15.812 7.681 0 8.106-7.095 8.106-15.812 0-16.936-.622-39.64-1.853-56.527l-1.867-25.862c-.75-10.225 9.18-20.252 16.521-26.153 12.151-9.773 17.103-26.845 17.103-45.603 0-29.401-15.787-47.739-38.01-47.739-22.237 0-38.49 18.286-38.49 47.687 0 18.758 5.417 35.882 17.568 45.655Zm20.922 131.16c-10.992 0-14.119-10.145-14.119-22.618 0-17.129.637-40.025 1.867-57.089l1.882-25.862c.566-7.833-8.402-15.523-14.018-20.035-13.735-11.048-20.1-30.247-20.1-51.211 0-33.155 18.94-54.496 44.488-54.496 25.533 0 44.008 21.392 44.008 54.548 0 20.962-5.899 40.111-19.635 51.159-5.616 4.512-14.583 12.202-14.018 20.035l1.882 25.862c1.23 17.08 1.867 39.96 1.867 57.089 0 12.473-3.113 22.618-14.104 22.618Z" style="fill-rule:nonzero;stroke:#000;stroke-width:1.04px;stroke-linecap:butt"/><path d="M144.27 79.272c4.068-2.292 9.977-.418 16.242 4.469 6.265 4.883 12.883 12.779 18.374 22.526s8.814 19.502 9.746 27.391c.931 7.888-.527 13.914-4.595 16.206M111.495 107.587a41.651 41.651 0 0 1 3.572 3.129c5.248 5.106 11.122 12.934 16.383 22.274 5.262 9.339 8.913 18.423 10.561 25.555.387 1.673.663 3.239.824 4.676" style="fill:none;stroke:#000;stroke-width:6.25px"/><path d="M61.556 180.794c2.755-1.689 1.327-5.389 1.277-8.837-.062-4.294.661-8.179-1.499-7.091-14.425 7.267-32.438 16.985-43.751 23.359-7.389 4.162-13.204 7.902-9.496 14.484 3.702 6.571 9.92 3.547 17.309-.615 9.583-5.399 23.732-13.679 36.16-21.3m.232 6.757c-11.763 7.158-24.568 14.641-33.502 19.674-10.572 5.955-20.671 8.136-25.968-1.266-5.296-9.402 1.796-16.921 12.367-22.877 12.009-6.765 31.438-17.215 46.317-24.641M82.173 167.615l16.91-11.219c8.306-5.524 21.589-1.817 30.129 1.645 14.138 5.728 30.994 1.813 46.893-7.143 24.92-14.038 32.854-36.299 22.145-55.309-10.716-19.022-34.046-24.194-58.965-10.156-15.899 8.957-27.803 21.766-30.23 36.827-1.464 9.098-5.178 22.379-14.206 26.62l-13.138 6.189m-1.21-5.943 11.948-5.621c6.912-3.256 9.108-14.599 10.226-21.557 2.745-17.024 14.92-32.338 32.688-42.348 28.102-15.831 56.348-9.116 68.659 12.738 12.304 21.841 3.718 48.558-24.384 64.389-17.767 10.009-37.483 13.406-53.465 6.932-6.531-2.65-17.37-6.649-23.737-2.425l-21.013 13.958" style="fill-rule:nonzero;stroke:#000;stroke-width:1.04px;stroke-linecap:butt"/></svg>