<svg viewBox="0 0 176 145" xmlns="http://www.w3.org/2000/svg" xml:space="preserve" style="fill-rule:evenodd;clip-rule:evenodd;stroke-linecap:round;stroke-linejoin:round;stroke-miterlimit:2"><path d="m82.477 75.653 76.283-15.321c8.904-1.791 15.504-.275 12.354 12.017l-7.904 30.792c-2.796 10.896-9.579 14.696-19.129 17.137l-77.979 19.954c-10.967 2.805-18.05-3.375-15.442-13.925l7.679-31.05c2.592-10.495 13.955-17.558 24.138-19.604Z" style="fill:none;stroke:#000;stroke-width:8px"/><path d="M168.835 60.674 78.023 13.249c-6.367-3.325-9.492-3.475-16.2-2.296l-39.679 7.009c-5.896 1.041-12.555 5.2-13.855 11.254L4.256 47.903c-.483 2.234-.267 4.117.512 5.534l46.709 82.591M156.102 114.941l-50.779-43.875" style="fill:none;stroke:#000;stroke-width:8px"/><path d="M51.606 12.762 40.502 6.67c-5.671-2.963-9.496-3.029-13.929-2.246L15.635 6.357c-4.729.834-7.696 3.559-8.533 7.438l-.609 2.833c-.679 3.142.551 6.617 2.596 10.242" style="fill:none;stroke:#000;stroke-width:8px"/></svg>