<svg viewBox="0 0 197 193" xmlns="http://www.w3.org/2000/svg" xml:space="preserve" style="fill-rule:evenodd;clip-rule:evenodd;stroke-linecap:round;stroke-linejoin:round;stroke-miterlimit:2"><path d="m48.089 107.723 12.735 2.08M43.302 137.321l12.701 2.069M60.824 109.803c2.046.332 3.626 2.287 4.526 5.184.905 2.898 1.129 6.728.462 10.814-.664 4.088-2.098 7.652-3.875 10.113-1.772 2.459-3.89 3.813-5.934 3.476M48.085 107.721c-2.042-.33-4.16 1.024-5.936 3.481-1.777 2.46-3.207 6.026-3.875 10.112-.665 4.082-.439 7.918.462 10.814.902 2.893 2.484 4.854 4.524 5.189" style="fill:none;stroke:#000;stroke-width:8.33px"/><path d="M21.041 160.942C10.616 144.324 4.167 121.364 4.167 96.003c0-25.361 6.449-48.321 16.874-64.936 10.422-16.619 24.82-26.9 40.729-26.9 15.904 0 30.302 10.278 40.728 26.9 10.426 16.615 16.87 39.575 16.87 64.936 0 25.361-6.449 48.321-16.87 64.939-10.426 16.615-24.824 26.897-40.728 26.897 0 0-12.715.34-19.093-3.717M61.77 4.167h72.516M62.1 187.839h72.186M134.286 4.167c15.909 0 30.307 10.278 40.733 26.9 10.426 16.615 16.87 39.575 16.87 64.936 0 25.361-6.444 48.321-16.87 64.939-10.426 16.615-24.824 26.897-40.733 26.897M119.368 96.003h72.521M50 138.986l-7.134 45.171M102.498 31.063h72.521M102.498 160.942h72.521" style="fill:none;stroke:#000;stroke-width:8.33px"/></svg>