<svg viewBox="0 0 216 200" xmlns="http://www.w3.org/2000/svg" xml:space="preserve" style="fill-rule:evenodd;clip-rule:evenodd;stroke-miterlimit:2"><path d="M90.247 95.114a4.72 4.72 0 1 1 3.098-8.915 4.72 4.72 0 0 1-3.098 8.915Z" style="fill:none;stroke:#000;stroke-width:8.33px"/><path d="M133.774 166.302c-12.451 6.647-26.721 10.422-41.89 10.422-24.269 0-46.243-9.663-62.145-25.295C13.838 135.798 4 114.207 4 90.362c0-23.855 9.838-45.445 25.739-61.067C45.641 13.663 67.615 4 91.884 4c24.27 0 46.24 9.663 62.141 25.295 9.539 9.368 16.895 20.883 21.256 33.745" style="fill:none;stroke:#000;stroke-width:8px;stroke-linecap:round;stroke-linejoin:round"/><path d="M114.752 90.362c0 6.233-2.571 11.876-6.729 15.962-4.156 4.086-9.899 6.611-16.242 6.611-6.344 0-12.088-2.525-16.244-6.611-4.157-4.086-6.728-9.729-6.728-15.962 0-6.235 2.571-11.879 6.728-15.962 4.156-4.086 9.9-6.612 16.244-6.612 6.343 0 12.086 2.526 16.242 6.612 4.158 4.083 6.729 9.727 6.729 15.962ZM28.665 110.038a63.957 63.957 0 0 1-3.083-19.676c0-17.969 7.41-34.232 19.388-45.999C56.948 32.589 73.5 25.31 91.781 25.31" style="fill:none;stroke:#000;stroke-width:8px;stroke-linecap:round;stroke-linejoin:round"/><path d="M45.328 90.362c0-12.609 5.2-24.021 13.605-32.278a46.584 46.584 0 0 1 21.719-12.052" style="fill:none;stroke:#000;stroke-width:8px;stroke-linecap:round;stroke-linejoin:round"/><path d="m164.322 74.249-.272 43.833M179.937 74.152l-.292 47.014M195.48 85.595l-.253 40.767M210.984 103.085l-.323 52.198M210.661 155.283c-.138 22.112-17.786 40.144-39.42 40.286-17.806.111-33.292-12.065-37.706-29.629l-10.831-42.223M195.366 103.866c.028-4.406 3.545-8 7.857-8.03 4.312-.027 7.787 3.524 7.759 7.933M179.864 85.691c.027-4.403 3.545-7.999 7.86-8.025 4.311-.027 7.784 3.523 7.756 7.929M164.322 74.249c.027-4.403 3.545-8 7.856-8.027 4.313-.03 7.788 3.521 7.759 7.93M148.634 85.892l-.339 54.723M148.634 85.892c.028-4.406 3.545-8 7.861-8.029 4.308-.028 7.783 3.523 7.755 7.932M122.701 123.716c-1.089-4.247 1.411-8.641 5.585-9.807 3.311-.928 6.805.453 8.609 3.409M136.899 117.315l11.396 23.3" style="fill:none;stroke:#000;stroke-width:8.33px;stroke-linecap:round;stroke-linejoin:round"/></svg>