<svg viewBox="0 0 203 160" xmlns="http://www.w3.org/2000/svg" xml:space="preserve" style="fill-rule:evenodd;clip-rule:evenodd;stroke-linecap:round;stroke-linejoin:round;stroke-miterlimit:2"><path d="M180.279 48.196c0 12.158-9.854 23.162-25.791 31.133-15.934 7.967-37.946 12.896-62.263 12.896-24.316 0-46.333-4.933-62.266-12.896C14.025 71.358 4.167 60.354 4.167 48.196c0-12.163 9.858-23.167 25.792-31.133C45.892 9.096 67.909 4.167 92.225 4.167c24.317 0 46.329 4.929 62.263 12.896 4.508 2.254 8.533 4.75 11.979 7.45M180.279 48.196v63.583M4.167 48.196v63.583M180.279 111.779c0 12.159-9.854 23.167-25.791 31.138-15.934 7.966-37.946 12.891-62.263 12.891-24.316 0-46.333-4.925-62.266-12.891-15.934-7.971-25.792-18.979-25.792-31.138M154.492 79.329v63.588M29.959 79.329v63.588M92.225 92.225V155.8" style="fill:none;stroke:#000;stroke-width:8.33px"/><path d="M85.354 46.813c37.65-10.088 75.305-20.175 112.955-30.267" style="fill:none;stroke:#000;stroke-width:8.33px"/><path d="M85.354 42.092a4.718 4.718 0 0 1 4.717 4.721 4.714 4.714 0 0 1-4.717 4.716 4.719 4.719 0 1 1 0-9.437Z" style="fill:none;stroke:#000;stroke-width:8.33px;stroke-linecap:butt;stroke-linejoin:miter"/></svg>