<svg viewBox="0 0 186 211" xmlns="http://www.w3.org/2000/svg" xml:space="preserve" style="fill-rule:evenodd;clip-rule:evenodd;stroke-linecap:round;stroke-linejoin:round;stroke-miterlimit:2"><path d="M181.516 40.331c0 10.031-9.936 19.114-26 25.69-16.06 6.576-38.248 10.641-62.758 10.641-24.511 0-46.704-4.065-62.763-10.641C13.935 59.445 4 50.362 4 40.331c0-10.036 9.935-19.118 25.995-25.69C46.054 8.065 68.247 4 92.758 4c24.51 0 46.698 4.065 62.758 10.641 16.064 6.572 26 15.654 26 25.69ZM181.516 40.331v129.434M4 40.331v129.434M181.516 169.765c0 10.035-9.936 19.118-26 25.693-16.06 6.576-38.248 10.641-62.758 10.641-24.511 0-46.704-4.069-62.763-10.641C13.935 188.883 4 179.8 4 169.765M155.521 66.021v129.437M29.995 66.021v128.788M92.758 76.666v129.433" style="fill:none;stroke:#000;stroke-width:8px"/></svg>