<svg viewBox="0 0 231 187" xmlns="http://www.w3.org/2000/svg" xml:space="preserve" style="fill-rule:evenodd;clip-rule:evenodd;stroke-linecap:round;stroke-linejoin:round;stroke-miterlimit:2"><path d="M115.303 146.059v36.795M115.303 52.887V4M4.36 105.249c2.454 15.32 17.09 27.198 38.781 34.024 21.68 6.821 50.414 8.586 81.048 3.68 30.639-4.912 57.376-15.558 75.842-28.817 18.472-13.25 28.667-29.107 26.214-44.427-2.453-15.32-17.094-27.197-38.78-34.019-21.68-6.816-50.41-8.586-81.049-3.68-30.633 4.907-57.375 15.563-75.842 28.813C12.113 74.077 1.907 89.93 4.36 105.249Z" style="fill:none;stroke:#000;stroke-width:8px"/><path d="M87.294 64.646c.621 3.87 4.321 6.866 9.792 8.587 5.475 1.721 12.729 2.171 20.459.929 7.737-1.237 14.487-3.925 19.145-7.271 4.663-3.345 7.238-7.35 6.621-11.216-.625-3.867-4.317-6.867-9.792-8.588-5.47-1.721-12.724-2.171-20.458-.933-7.733 1.242-14.487 3.933-19.15 7.275-4.658 3.346-7.233 7.35-6.617 11.217Z" style="fill:none;stroke:#000;stroke-width:8px"/><path d="M97.574 51.191c-10.459 3.055-19.555 7.359-26.492 12.334-9.996 7.175-15.517 15.758-14.183 24.05 1.325 8.291 9.246 14.721 20.987 18.412 11.733 3.692 27.284 4.65 43.867 1.992 16.583-2.654 31.058-8.421 41.054-15.596 9.996-7.175 15.517-15.754 14.187-24.046-1.329-8.296-9.254-14.725-20.987-18.412-7.083-2.229-15.55-3.459-24.792-3.504" style="fill:none;stroke:#000;stroke-width:8px"/></svg>