<svg viewBox="0 0 199 204" xmlns="http://www.w3.org/2000/svg" xml:space="preserve" style="fill-rule:evenodd;clip-rule:evenodd;stroke-linecap:round;stroke-linejoin:round;stroke-miterlimit:2"><path d="M194.664 73.178c0 13.16-10.666 25.079-27.921 33.704-17.25 8.63-41.082 13.966-67.408 13.966-26.327 0-50.165-5.336-67.414-13.966C14.672 98.257 4 86.338 4 73.178c0-13.166 10.672-25.079 27.921-33.71 17.249-8.619 41.087-13.96 67.414-13.96 26.326 0 50.158 5.341 67.408 13.96 17.249 8.631 27.921 20.544 27.921 33.71Z" style="fill:none;stroke:#000;stroke-width:8px"/><path d="M187.176 92.127c4.82 5.695 7.488 11.971 7.488 18.554 0 13.16-10.666 25.079-27.921 33.704-17.25 8.63-41.082 13.96-67.408 13.96-26.327 0-50.165-5.336-67.414-13.96C14.672 135.76 4 123.841 4 110.681c0-6.583 2.668-12.853 7.493-18.554M139.32 63.863c0 5.522-4.478 10.521-11.71 14.141-7.239 3.613-17.238 5.852-28.275 5.852-11.044 0-21.043-2.239-28.275-5.852-7.239-3.62-11.711-8.619-11.711-14.141s4.472-10.521 11.711-14.135c7.232-3.619 17.231-5.858 28.275-5.858 11.037 0 21.036 2.239 28.275 5.858 7.232 3.614 11.71 8.613 11.71 14.135ZM99.334 4v51.468M99.334 161.41v37.942" style="fill:none;stroke:#000;stroke-width:8px"/></svg>