<svg viewBox="0 0 169 180" xmlns="http://www.w3.org/2000/svg" xml:space="preserve" style="fill-rule:evenodd;clip-rule:evenodd;stroke-linecap:round;stroke-linejoin:round;stroke-miterlimit:2"><path d="m16.286 94.106 57.425 15.006M58.896 10.425l32.107 32.107M11.306 112.243l59.282 15.489M45.959 23.357 67.41 44.809M19.772 133.891l47.506 12.414M42.388 45.644l12.261 12.265M35.286 157.38l60.827 15.895M96.113 173.275c25.767 6.733 52.246-8.178 59.155-33.302 5.68-20.68-3.658-42.49-22.716-53.1L86.808 61.11" style="fill:none;stroke:#000;stroke-width:8.33px"/><path d="M153.73 112.028a45.93 45.93 0 0 0 3.197-4.349c9.304-14.305 10.011-32.942 1.141-48.136l-25.085-43.46" style="fill:none;stroke:#000;stroke-width:8.33px;stroke-linecap:butt"/><path d="M41.064 139.454c-5.135-1.341-10.412 1.63-11.791 6.638-1.375 5.007 1.672 10.157 6.811 11.498M54.143 57.453a9.144 9.144 0 0 0-15.329 8.719M24.753 115.754c-5.131-1.341-10.412 1.631-11.787 6.642-1.376 5.007 1.672 10.154 6.806 11.495M55.316 32.711c-3.571-3.571-9.365-3.571-12.928 0a9.137 9.137 0 0 0 0 12.933M16.286 94.106c-5.131-1.341-10.412 1.631-11.787 6.638-1.38 5.007 1.668 10.158 6.807 11.499M58.896 10.425a9.149 9.149 0 0 0-12.937 0 9.15 9.15 0 0 0 0 12.932M34.721 79.485l63.768 16.664M81.182 6.849l44.345 44.345M34.721 79.485c-5.135-1.341-10.412 1.63-11.791 6.642-1.375 5.003 1.672 10.153 6.811 11.494M81.182 6.845a9.146 9.146 0 0 0-12.933 12.933M86.808 61.106c-4.602-2.591-10.493-1.052-13.15 3.44-2.112 3.563-1.595 8.059 1.282 11.078M132.983 16.083c-2.524-4.375-8.117-5.871-12.489-3.347a9.144 9.144 0 0 0-4.344 9.957M74.936 75.628l23.553 20.521M116.15 22.693l9.377 28.501" style="fill:none;stroke:#000;stroke-width:8.33px"/></svg>