<svg viewBox="0 0 185 140" xmlns="http://www.w3.org/2000/svg" xml:space="preserve" style="fill-rule:evenodd;clip-rule:evenodd;stroke-linecap:round;stroke-linejoin:round;stroke-miterlimit:2"><path d="M25.452 40.76C38.014 26.995 60.289 3.821 83.008 3.959c27.109.165 11.939 27.149 38.233 36.122 26.294 8.973 59.017-17.743 59.017-17.743" style="fill:none;fill-rule:nonzero;stroke:#000;stroke-width:7.92px"/><path d="M18.287 71.827c12.562-13.765 34.838-36.939 57.557-36.801 27.108.165 11.938 27.149 38.232 36.122 26.295 8.973 59.017-17.743 59.017-17.743" style="fill:none;fill-rule:nonzero;stroke:#000;stroke-width:7.92px"/><path d="M11.123 102.894C23.685 89.129 45.96 65.955 68.679 66.093c27.109.165 11.939 27.149 38.233 36.122 26.294 8.973 59.017-17.743 59.017-17.743" style="fill:none;fill-rule:nonzero;stroke:#000;stroke-width:7.92px"/><path d="M3.958 133.961C16.52 120.196 38.796 97.022 61.515 97.16c27.108.165 11.938 27.149 38.232 36.122 26.295 8.973 59.017-17.743 59.017-17.743" style="fill:none;fill-rule:nonzero;stroke:#000;stroke-width:7.92px"/></svg>