<svg viewBox="0 0 213 193" xmlns="http://www.w3.org/2000/svg" xml:space="preserve" style="fill-rule:evenodd;clip-rule:evenodd;stroke-linecap:round;stroke-linejoin:round;stroke-miterlimit:2"><path d="M25.641 31.07C12.373 47.689 4.167 70.649 4.167 96.01c0 25.361 8.206 48.321 21.474 64.936 13.262 16.618 31.585 26.9 51.831 26.9 20.239 0 38.562-10.278 51.83-26.9 13.268-16.615 21.468-39.575 21.468-64.936 0-25.361-8.206-48.321-21.468-64.94-13.268-16.615-31.591-26.896-51.83-26.896 0 0-16.181-.34-24.298 3.717M77.472 4.167h57.986M77.891 187.839h57.567" style="fill:none;stroke:#000;stroke-width:8.33px"/><path d="M135.458 4.167c20.246 0 38.569 10.278 51.837 26.9 13.267 16.615 21.468 39.575 21.468 64.936 0 25.361-8.201 48.321-21.468 64.939-13.268 16.615-31.591 26.897-51.837 26.897M150.77 96.003h57.993M129.302 31.063h57.993M129.302 160.942h57.993" style="fill:none;stroke:#000;stroke-width:8.33px"/></svg>