<svg viewBox="0 0 212 164" xmlns="http://www.w3.org/2000/svg" xml:space="preserve" style="fill-rule:evenodd;clip-rule:evenodd;stroke-linecap:round;stroke-linejoin:round;stroke-miterlimit:2"><path d="M27.689 128.392 4 131.391l23.689-2.999ZM74.531 122.461l-19.612 2.483 19.612-2.483ZM160.105 111.04l-13.429 1.7 13.429-1.7ZM118.5 116.894l-16.96 2.147 16.96-2.147ZM207.244 105.071l-16.96 2.147 16.96-2.147ZM27.689 32.429 4 29.429l23.689 3ZM74.531 38.36l-19.612-2.484 19.612 2.484ZM160.105 49.781l-13.429-1.701 13.429 1.701ZM118.5 43.927l-16.96-2.148 16.96 2.148ZM207.244 55.749l-16.96-2.147 16.96 2.147Z" style="fill:none;stroke:#000;stroke-width:8px"/><path d="M101.54 25.22a6.756 6.756 0 0 0-6.752-6.753H81.283a6.756 6.756 0 0 0-6.752 6.753v113.377a6.755 6.755 0 0 0 6.752 6.752h13.505a6.755 6.755 0 0 0 6.752-6.752V25.22ZM54.919 15.659a6.811 6.811 0 0 0-6.808-6.808H34.496a6.81 6.81 0 0 0-6.807 6.808v132.499a6.81 6.81 0 0 0 6.807 6.807h13.615a6.81 6.81 0 0 0 6.808-6.807V15.659ZM145.658 33.725a6.793 6.793 0 0 0-6.789-6.79h-13.58a6.793 6.793 0 0 0-6.789 6.79v96.367a6.792 6.792 0 0 0 6.789 6.789h13.58a6.792 6.792 0 0 0 6.789-6.789V33.725ZM189.078 43.172a6.806 6.806 0 0 0-6.803-6.803H168.67a6.806 6.806 0 0 0-6.802 6.803v77.473a6.805 6.805 0 0 0 6.802 6.802h13.605a6.806 6.806 0 0 0 6.803-6.802V43.172Z" style="fill:none;stroke:#000;stroke-width:7.92px;stroke-linecap:butt;stroke-linejoin:miter"/></svg>