<svg viewBox="0 0 247 193" xmlns="http://www.w3.org/2000/svg" xml:space="preserve" style="fill-rule:evenodd;clip-rule:evenodd;stroke-linecap:round;stroke-linejoin:round;stroke-miterlimit:2"><path d="M180.279 80.972c0 12.158-9.858 23.162-25.791 31.133-15.934 7.967-37.95 12.896-62.263 12.896-24.321 0-46.337-4.934-62.271-12.896C14.021 104.134 4.167 93.13 4.167 80.972c0-12.163 9.854-23.167 25.787-31.134 15.934-7.966 37.95-12.896 62.271-12.896 24.313 0 46.329 4.93 62.263 12.896 4.508 2.254 8.533 4.75 11.979 7.45" style="fill:none;stroke:#000;stroke-width:8.33px"/><path d="M4.167 80.972c0 12.158 9.858 23.162 25.792 31.133 15.933 7.967 37.95 12.896 62.262 12.896 24.321 0 46.338-4.934 62.271-12.896 15.933-7.971 25.787-18.975 25.787-31.133 0-12.163-9.854-23.167-25.787-31.134-15.933-7.966-37.95-12.896-62.271-12.896-24.312 0-46.329 4.93-62.262 12.896-4.509 2.254-8.534 4.75-11.98 7.45M180.279 80.972v63.583M4.167 80.972v63.583M180.279 144.555c0 12.158-9.858 23.167-25.791 31.137-15.934 7.967-37.95 12.892-62.263 12.892-24.321 0-46.337-4.925-62.271-12.892-15.933-7.97-25.787-18.979-25.787-31.137M154.488 112.105v63.587M29.954 112.105v63.587M92.225 125.001v63.575M143.986 14.041c32.755 21.13 65.512 42.257 98.267 63.387" style="fill:none;stroke:#000;stroke-width:8.33px"/><path d="M142.543 18.53a4.715 4.715 0 0 0 5.935-3.044 4.717 4.717 0 0 0-3.045-5.941 4.72 4.72 0 0 0-5.939 3.051 4.714 4.714 0 0 0 3.049 5.934Z" style="fill:none;stroke:#000;stroke-width:8.33px;stroke-linecap:butt;stroke-linejoin:miter"/></svg>