<svg viewBox="0 0 206 202" xmlns="http://www.w3.org/2000/svg" xml:space="preserve" style="fill-rule:evenodd;clip-rule:evenodd;stroke-linecap:round;stroke-linejoin:round;stroke-miterlimit:2"><path d="M80.284 148.322a37.567 37.567 0 0 1-18.526-9.823c-6.756-6.57-10.935-15.644-10.935-25.667 0-10.026 4.179-19.1 10.935-25.666 6.755-6.57 16.091-10.632 26.401-10.632 10.31 0 19.644 4.062 26.4 10.632 6.757 6.566 10.937 15.64 10.937 25.666 0 10.023-4.18 19.097-10.937 25.667-5.199 5.056-10.266 8.414-17.126 9.908" style="fill:none;stroke:#000;stroke-width:8px"/><circle cx="87.818" cy="113.221" r="83.86" style="fill:none;stroke:#000;stroke-width:7.92px;stroke-linecap:butt"/><path d="M45.093 41.061C60.609 18.649 86.498 3.958 115.791 3.958c47.423 0 85.925 38.502 85.925 85.925 0 34.846-20.788 64.875-50.624 78.349 12.82-14.73 20.586-33.971 20.586-55.011 0-46.283-37.577-83.86-83.86-83.86-15.597 0-30.206 4.268-42.725 11.7Z" style="fill:none;stroke:#000;stroke-width:7.92px;stroke-linecap:butt"/><path d="m88.84 127.359-5.858 30.796a5.951 5.951 0 0 0 1.269 4.921 5.933 5.933 0 0 0 4.589 2.159c1.79 0 3.462-.783 4.601-2.159a5.955 5.955 0 0 0 1.269-4.921l-5.87-30.796Zm0 42.915a10.955 10.955 0 0 1-8.467-3.996 10.929 10.929 0 0 1-2.336-9.06l8.336-43.792a2.514 2.514 0 0 1 2.467-2.04c1.209 0 2.253.854 2.478 2.04l8.336 43.792a10.97 10.97 0 0 1-2.336 9.06 10.961 10.961 0 0 1-8.478 3.996Z" style="fill-rule:nonzero;stroke:#000;stroke-width:.83px;stroke-linecap:butt"/></svg>