<svg viewBox="0 0 214 160" xmlns="http://www.w3.org/2000/svg" xml:space="preserve" style="fill-rule:evenodd;clip-rule:evenodd;stroke-linecap:round;stroke-linejoin:round;stroke-miterlimit:2"><path d="m83.373 47.532 44.714-11.521M80.933 22.885l47.154 13.126M95.011 68.448l33.076-32.437" style="fill:none;stroke:#000;stroke-width:8px"/><path d="M180.279 48.196c0 12.158-9.854 23.162-25.791 31.133-15.934 7.967-37.946 12.896-62.263 12.896-24.316 0-46.333-4.933-62.266-12.896C14.025 71.358 4.167 60.354 4.167 48.196c0-12.163 9.858-23.167 25.792-31.133C45.892 9.096 67.909 4.167 92.225 4.167c24.317 0 46.329 4.929 62.263 12.896 4.508 2.254 8.533 4.75 11.979 7.45M180.279 48.196v63.583M4.167 48.196v63.583M180.279 111.779c0 12.159-9.854 23.167-25.791 31.138-15.934 7.966-37.946 12.891-62.263 12.891-24.316 0-46.333-4.925-62.266-12.891-15.934-7.971-25.792-18.979-25.792-31.138M154.492 79.329v63.588M29.959 79.329v63.588M92.225 92.225V155.8" style="fill:none;stroke:#000;stroke-width:8.33px"/><path d="M121.709 37.425c29.181-7.716 58.365-15.432 87.546-23.152" style="fill:none;stroke:#000;stroke-width:8.33px"/></svg>