<svg viewBox="0 0 154 147" xmlns="http://www.w3.org/2000/svg" xml:space="preserve" style="fill-rule:evenodd;clip-rule:evenodd;stroke-linecap:round;stroke-linejoin:round;stroke-miterlimit:2"><path d="M63.699 89.103c16.222 17.185 32.445 34.373 48.669 51.557" style="fill:none;stroke:#000;stroke-width:8.33px"/><path d="M50.224 128.951a5.157 5.157 0 1 1-8.934 5.153 5.157 5.157 0 0 1 8.934-5.153ZM28.76 19.346a5.155 5.155 0 0 1-3.179-6.562 5.151 5.151 0 0 1 6.558-3.18 5.156 5.156 0 1 1-3.379 9.742Z" style="fill:none;stroke:#000;stroke-width:8.33px;stroke-linecap:butt;stroke-linejoin:miter"/><path d="m4 89.158 36.14-35.442" style="fill:none;stroke:#000;stroke-width:8px"/><circle cx="108.234" cy="91.297" r="3.8" style="fill:none;stroke:#000;stroke-width:7.92px;stroke-linecap:butt"/><path d="M74.288 33.004a5.155 5.155 0 0 1-3.179-6.562 5.15 5.15 0 0 1 6.557-3.18 5.152 5.152 0 0 1 3.185 6.559 5.155 5.155 0 0 1-6.563 3.183Z" style="fill:none;stroke:#000;stroke-width:8.33px;stroke-linecap:butt;stroke-linejoin:miter"/><circle cx="145.614" cy="104.56" r="3.8" style="fill:none;stroke:#000;stroke-width:7.92px;stroke-linecap:butt"/></svg>