<?xml version="1.0" encoding="UTF-8" standalone="no"?><!DOCTYPE svg PUBLIC "-//W3C//DTD SVG 1.1//EN" "http://www.w3.org/Graphics/SVG/1.1/DTD/svg11.dtd"><svg width="100%" height="100%" viewBox="0 0 137 201" version="1.1" xmlns="http://www.w3.org/2000/svg" xmlns:xlink="http://www.w3.org/1999/xlink" xml:space="preserve" xmlns:serif="http://www.serif.com/" style="fill-rule:evenodd;clip-rule:evenodd;stroke-linecap:round;stroke-linejoin:round;stroke-miterlimit:2;"><path d="M93.016,73.1l-12.116,-65.663l-41.946,0l-34.954,189.375l111.85,0l-17.85,-96.716" style="fill:none;stroke:#000;stroke-width:8px;"/><path d="M12.187,153.662c14.129,-7.787 30.334,-12.212 47.563,-12.212c17.375,-0 33.704,4.504 47.912,12.408" style="fill:none;stroke:#000;stroke-width:8px;"/><path d="M59.783,25.729l0,98.562" style="fill:none;stroke:#000;stroke-width:8px;"/><path d="M68.116,75.008l-16.666,0" style="fill:none;stroke:#000;stroke-width:8px;"/><path d="M68.116,45.216l-16.666,0" style="fill:none;stroke:#000;stroke-width:8px;"/><path d="M68.116,104.808l-16.666,0" style="fill:none;stroke:#000;stroke-width:8px;"/><path d="M112.504,45.958l-26.413,98.579" style="fill:none;stroke:#000;stroke-width:8px;"/><path d="M106.275,17.271l25.966,6.958l-11.583,23.908l-16.308,-4.366l1.925,-26.5Z" style="fill:none;stroke:#000;stroke-width:8px;"/><path d="M123.75,4l-4.488,16.75" style="fill:none;stroke:#000;stroke-width:8px;"/></svg>