<?xml version="1.0" encoding="UTF-8" standalone="no"?><!DOCTYPE svg PUBLIC "-//W3C//DTD SVG 1.1//EN" "http://www.w3.org/Graphics/SVG/1.1/DTD/svg11.dtd"><svg width="100%" height="100%" viewBox="0 0 203 160" version="1.1" xmlns="http://www.w3.org/2000/svg" xmlns:xlink="http://www.w3.org/1999/xlink" xml:space="preserve" xmlns:serif="http://www.serif.com/" style="fill-rule:evenodd;clip-rule:evenodd;stroke-linecap:round;stroke-linejoin:round;stroke-miterlimit:2;"><path d="M180.279,48.196c0,12.158 -9.854,23.162 -25.791,31.133c-15.934,7.967 -37.946,12.896 -62.263,12.896c-24.316,0 -46.333,-4.933 -62.266,-12.896c-15.934,-7.971 -25.792,-18.975 -25.792,-31.133c-0,-12.163 9.858,-23.167 25.792,-31.133c15.933,-7.967 37.95,-12.896 62.266,-12.896c24.317,-0 46.329,4.929 62.263,12.896c4.508,2.254 8.533,4.75 11.979,7.45" style="fill:none;stroke:#000;stroke-width:8.33px;"/><path d="M180.279,48.196l0,63.583" style="fill:none;stroke:#000;stroke-width:8.33px;"/><path d="M4.167,48.196l-0,63.583" style="fill:none;stroke:#000;stroke-width:8.33px;"/><path d="M180.279,111.779c0,12.159 -9.854,23.167 -25.791,31.138c-15.934,7.966 -37.946,12.891 -62.263,12.891c-24.316,0 -46.333,-4.925 -62.266,-12.891c-15.934,-7.971 -25.792,-18.979 -25.792,-31.138" style="fill:none;stroke:#000;stroke-width:8.33px;"/><path d="M154.492,79.329l-0,63.588" style="fill:none;stroke:#000;stroke-width:8.33px;"/><path d="M29.959,79.329l-0,63.588" style="fill:none;stroke:#000;stroke-width:8.33px;"/><path d="M92.225,92.225l0,63.575" style="fill:none;stroke:#000;stroke-width:8.33px;"/><path d="M85.354,46.813c37.65,-10.088 75.305,-20.175 112.955,-30.267" style="fill:none;stroke:#000;stroke-width:8.33px;"/><path d="M85.354,42.092c2.605,-0 4.717,2.112 4.717,4.721c-0,2.608 -2.112,4.716 -4.717,4.716c-2.608,0 -4.72,-2.108 -4.72,-4.716c-0,-2.609 2.112,-4.721 4.72,-4.721Z" style="fill:none;stroke:#000;stroke-width:8.33px;stroke-linecap:butt;stroke-linejoin:miter;"/></svg>