<?xml version="1.0" encoding="UTF-8" standalone="no"?><!DOCTYPE svg PUBLIC "-//W3C//DTD SVG 1.1//EN" "http://www.w3.org/Graphics/SVG/1.1/DTD/svg11.dtd"><svg width="100%" height="100%" viewBox="0 0 181 190" version="1.1" xmlns="http://www.w3.org/2000/svg" xmlns:xlink="http://www.w3.org/1999/xlink" xml:space="preserve" xmlns:serif="http://www.serif.com/" style="fill-rule:evenodd;clip-rule:evenodd;stroke-linecap:round;stroke-linejoin:round;stroke-miterlimit:2;"><path d="M16.577,100.167l79.084,21.192" style="fill:none;stroke:#000;stroke-width:8.33px;"/><path d="M63.165,10.913l57.892,57.891" style="fill:none;stroke:#000;stroke-width:8.33px;"/><path d="M11.477,119.213l79.08,21.187" style="fill:none;stroke:#000;stroke-width:8.33px;"/><path d="M49.219,24.854l26.088,26.088" style="fill:none;stroke:#000;stroke-width:8.33px;"/><path d="M20.148,141.946l65.309,17.5" style="fill:none;stroke:#000;stroke-width:8.33px;"/><path d="M45.369,48.879l15.959,15.963" style="fill:none;stroke:#000;stroke-width:8.33px;"/><path d="M36.036,166.613l62.291,16.691" style="fill:none;stroke:#000;stroke-width:8.33px;"/><path d="M98.327,183.304c26.388,7.071 53.505,-8.587 60.58,-34.97c5.816,-21.717 -3.746,-44.621 -23.263,-55.763l-46.846,-27.054" style="fill:none;stroke:#000;stroke-width:8.33px;"/><path d="M159.711,126.234c3.541,-3.059 6.583,-6.55 9.133,-10.48c10.029,-15.42 10.792,-35.512 1.229,-51.891l-27.041,-46.85" style="fill:none;stroke:#000;stroke-width:8.33px;"/><path d="M41.952,147.788c-5.258,-1.409 -10.662,1.712 -12.074,6.971c-1.409,5.258 1.712,10.666 6.974,12.075" style="fill:none;stroke:#000;stroke-width:8.33px;"/><path d="M61.328,64.842c-3.851,-3.85 -10.092,-3.85 -13.942,-0c-2.458,2.458 -3.442,6.029 -2.583,9.4" style="fill:none;stroke:#000;stroke-width:8.33px;"/><path d="M25.248,122.9c-5.254,-1.408 -10.662,1.713 -12.07,6.975c-1.409,5.259 1.712,10.663 6.97,12.071" style="fill:none;stroke:#000;stroke-width:8.33px;"/><path d="M59.307,34.938c-3.85,-3.85 -10.096,-3.85 -13.938,-0c-3.854,3.85 -3.854,10.091 0,13.941" style="fill:none;stroke:#000;stroke-width:8.33px;"/><path d="M16.577,100.167c-5.254,-1.408 -10.662,1.712 -12.07,6.971c-1.413,5.258 1.708,10.666 6.97,12.075" style="fill:none;stroke:#000;stroke-width:8.33px;"/><path d="M63.165,10.913c-3.854,-3.85 -10.092,-3.85 -13.946,-0c-3.846,3.85 -3.846,10.091 0,13.941" style="fill:none;stroke:#000;stroke-width:8.33px;"/><path d="M35.457,84.813l65.304,17.5" style="fill:none;stroke:#000;stroke-width:8.33px;"/><path d="M87.19,7.059l47.804,47.804" style="fill:none;stroke:#000;stroke-width:8.33px;"/><path d="M35.457,84.813c-5.259,-1.409 -10.663,1.712 -12.075,6.975c-1.409,5.254 1.712,10.662 6.975,12.071" style="fill:none;stroke:#000;stroke-width:8.33px;"/><path d="M87.19,7.054c-3.85,-3.85 -10.092,-3.85 -13.942,0c-3.85,3.85 -3.85,10.092 0,13.942" style="fill:none;stroke:#000;stroke-width:8.33px;"/><path d="M88.798,65.513c-4.712,-2.721 -10.746,-1.104 -13.466,3.612c-2.163,3.742 -1.634,8.463 1.312,11.634" style="fill:none;stroke:#000;stroke-width:8.33px;"/><path d="M143.032,17.013c-2.721,-4.717 -8.75,-6.329 -13.463,-3.609c-3.75,2.167 -5.646,6.513 -4.683,10.734" style="fill:none;stroke:#000;stroke-width:8.33px;"/><path d="M76.64,80.763l24.121,21.55" style="fill:none;stroke:#000;stroke-width:8.33px;"/><path d="M124.886,24.138l10.108,30.725" style="fill:none;stroke:#000;stroke-width:8.33px;"/></svg>