<?xml version="1.0" encoding="UTF-8" standalone="no"?><!DOCTYPE svg PUBLIC "-//W3C//DTD SVG 1.1//EN" "http://www.w3.org/Graphics/SVG/1.1/DTD/svg11.dtd"><svg width="100%" height="100%" viewBox="0 0 217 198" version="1.1" xmlns="http://www.w3.org/2000/svg" xmlns:xlink="http://www.w3.org/1999/xlink" xml:space="preserve" xmlns:serif="http://www.serif.com/" style="fill-rule:evenodd;clip-rule:evenodd;stroke-linecap:round;stroke-linejoin:round;stroke-miterlimit:2;"><path d="M160.267,68.745c-0,10.786 -8.742,20.554 -22.884,27.623c-14.138,7.073 -33.671,11.447 -55.247,11.447c-21.577,-0 -41.115,-4.374 -55.252,-11.447c-14.138,-7.069 -22.884,-16.837 -22.884,-27.623c-0,-10.791 8.746,-20.555 22.884,-27.629c14.137,-7.064 33.675,-11.442 55.252,-11.442c21.576,0 41.109,4.378 55.247,11.442c14.137,7.074 22.884,16.838 22.884,27.629Z" style="fill:none;stroke:#000;stroke-width:8px;"/><path d="M154.13,84.275c3.95,4.668 6.137,9.811 6.137,15.207c-0,10.786 -8.742,20.554 -22.884,27.623c-14.138,7.074 -33.671,11.442 -55.247,11.442c-21.577,0 -41.115,-4.373 -55.252,-11.442c-14.138,-7.069 -22.884,-16.837 -22.884,-27.623c-0,-5.396 2.187,-10.534 6.142,-15.207" style="fill:none;stroke:#000;stroke-width:8px;"/><path d="M114.907,61.11c0,4.526 -3.67,8.623 -9.597,11.59c-5.933,2.961 -14.128,4.796 -23.174,4.796c-9.051,-0 -17.247,-1.835 -23.174,-4.796c-5.933,-2.967 -9.598,-7.064 -9.598,-11.59c-0,-4.525 3.665,-8.623 9.598,-11.585c5.927,-2.966 14.123,-4.801 23.174,-4.801c9.046,0 17.241,1.835 23.174,4.801c5.927,2.962 9.597,7.06 9.597,11.585Z" style="fill:none;stroke:#000;stroke-width:8px;"/><path d="M82.136,4l-0,51.468" style="fill:none;stroke:#000;stroke-width:8px;"/><path d="M82.136,138.547l-0,54.938" style="fill:none;stroke:#000;stroke-width:8px;"/><path d="M201.547,27.407l0,42.526" style="fill:none;stroke:#000;stroke-width:8px;"/><path d="M212.181,51.517l-10.634,18.416" style="fill:none;stroke:#000;stroke-width:8px;"/><path d="M190.918,51.517l10.629,18.416" style="fill:none;stroke:#000;stroke-width:8px;"/><path d="M201.547,140.377l0,-42.526" style="fill:none;stroke:#000;stroke-width:8px;"/><path d="M212.181,116.267l-10.634,-18.416" style="fill:none;stroke:#000;stroke-width:8px;"/><path d="M190.918,116.267l10.629,-18.416" style="fill:none;stroke:#000;stroke-width:8px;"/></svg>