<?xml version="1.0" encoding="UTF-8" standalone="no"?><!DOCTYPE svg PUBLIC "-//W3C//DTD SVG 1.1//EN" "http://www.w3.org/Graphics/SVG/1.1/DTD/svg11.dtd"><svg width="100%" height="100%" viewBox="0 0 225 215" version="1.1" xmlns="http://www.w3.org/2000/svg" xmlns:xlink="http://www.w3.org/1999/xlink" xml:space="preserve" xmlns:serif="http://www.serif.com/" style="fill-rule:evenodd;clip-rule:evenodd;stroke-linecap:round;stroke-linejoin:round;stroke-miterlimit:2;"><path d="M112.434,137.041l0,73.9" style="fill:none;stroke:#000;stroke-width:8px;"/><path d="M112.434,58.079l0,-54.079" style="fill:none;stroke:#000;stroke-width:8px;"/><path d="M220.517,99.1c-2.391,14.921 -16.654,26.496 -37.779,33.137c-21.125,6.65 -49.116,8.371 -78.958,3.592c-29.85,-4.783 -55.9,-15.163 -73.892,-28.075c-17.991,-12.908 -27.925,-28.358 -25.537,-43.279c2.391,-14.925 16.658,-26.5 37.779,-33.138c21.125,-6.646 49.112,-8.371 78.962,-3.591c29.846,4.783 55.896,15.158 73.888,28.07c17.992,12.909 27.929,28.359 25.537,43.284Z" style="fill:none;stroke:#000;stroke-width:8px;"/><path d="M146.326,68.891c-0.75,4.68 -5.221,8.309 -11.846,10.392c-6.625,2.083 -15.4,2.625 -24.758,1.125c-9.363,-1.496 -17.53,-4.754 -23.171,-8.8c-5.642,-4.05 -8.759,-8.892 -8.009,-13.571c0.75,-4.679 5.225,-8.308 11.846,-10.396c6.625,-2.083 15.404,-2.62 24.763,-1.125c9.358,1.5 17.525,4.755 23.166,8.8c5.642,4.05 8.759,8.896 8.009,13.575Z" style="fill:none;stroke:#000;stroke-width:8px;"/></svg>