<?xml version="1.0" encoding="UTF-8" standalone="no"?><!DOCTYPE svg PUBLIC "-//W3C//DTD SVG 1.1//EN" "http://www.w3.org/Graphics/SVG/1.1/DTD/svg11.dtd"><svg width="100%" height="100%" viewBox="0 0 247 193" version="1.1" xmlns="http://www.w3.org/2000/svg" xmlns:xlink="http://www.w3.org/1999/xlink" xml:space="preserve" xmlns:serif="http://www.serif.com/" style="fill-rule:evenodd;clip-rule:evenodd;stroke-linecap:round;stroke-linejoin:round;stroke-miterlimit:2;"><path d="M180.279,80.972c0,12.158 -9.858,23.162 -25.791,31.133c-15.934,7.967 -37.95,12.896 -62.263,12.896c-24.321,-0 -46.337,-4.934 -62.271,-12.896c-15.933,-7.971 -25.787,-18.975 -25.787,-31.133c-0,-12.163 9.854,-23.167 25.787,-31.134c15.934,-7.966 37.95,-12.896 62.271,-12.896c24.313,0 46.329,4.93 62.263,12.896c4.508,2.254 8.533,4.75 11.979,7.45" style="fill:none;stroke:#000;stroke-width:8.33px;"/><path d="M4.167,80.972c-0,12.158 9.858,23.162 25.792,31.133c15.933,7.967 37.95,12.896 62.262,12.896c24.321,-0 46.338,-4.934 62.271,-12.896c15.933,-7.971 25.787,-18.975 25.787,-31.133c0,-12.163 -9.854,-23.167 -25.787,-31.134c-15.933,-7.966 -37.95,-12.896 -62.271,-12.896c-24.312,0 -46.329,4.93 -62.262,12.896c-4.509,2.254 -8.534,4.75 -11.98,7.45" style="fill:none;stroke:#000;stroke-width:8.33px;"/><path d="M180.279,80.972l0,63.583" style="fill:none;stroke:#000;stroke-width:8.33px;"/><path d="M4.167,80.972l-0,63.583" style="fill:none;stroke:#000;stroke-width:8.33px;"/><path d="M180.279,144.555c0,12.158 -9.858,23.167 -25.791,31.137c-15.934,7.967 -37.95,12.892 -62.263,12.892c-24.321,0 -46.337,-4.925 -62.271,-12.892c-15.933,-7.97 -25.787,-18.979 -25.787,-31.137" style="fill:none;stroke:#000;stroke-width:8.33px;"/><path d="M154.488,112.105l-0,63.587" style="fill:none;stroke:#000;stroke-width:8.33px;"/><path d="M29.954,112.105l0,63.587" style="fill:none;stroke:#000;stroke-width:8.33px;"/><path d="M92.225,125.001l0,63.575" style="fill:none;stroke:#000;stroke-width:8.33px;"/><path d="M143.986,14.041c32.755,21.13 65.512,42.257 98.267,63.387" style="fill:none;stroke:#000;stroke-width:8.33px;"/><path d="M142.543,18.53c2.481,0.797 5.138,-0.563 5.935,-3.044c0.803,-2.482 -0.564,-5.144 -3.045,-5.941c-2.481,-0.797 -5.14,0.566 -5.939,3.051c-0.798,2.48 0.566,5.14 3.049,5.934Z" style="fill:none;stroke:#000;stroke-width:8.33px;stroke-linecap:butt;stroke-linejoin:miter;"/></svg>