<?xml version="1.0" encoding="UTF-8" standalone="no"?><!DOCTYPE svg PUBLIC "-//W3C//DTD SVG 1.1//EN" "http://www.w3.org/Graphics/SVG/1.1/DTD/svg11.dtd"><svg width="100%" height="100%" viewBox="0 0 237 198" version="1.1" xmlns="http://www.w3.org/2000/svg" xmlns:xlink="http://www.w3.org/1999/xlink" xml:space="preserve" xmlns:serif="http://www.serif.com/" style="fill-rule:evenodd;clip-rule:evenodd;stroke-linecap:round;stroke-linejoin:round;stroke-miterlimit:2;"><path d="M157.371,92.165c-4.494,7.327 -13.722,12.715 -25.867,15.707c-15.346,3.785 -35.37,3.748 -56.413,-0.993c-21.052,-4.756 -39.137,-13.321 -51.376,-23.329c-12.24,-10.009 -18.615,-21.46 -16.246,-31.988c2.373,-10.519 13.056,-18.125 28.407,-21.909c15.346,-3.78 35.366,-3.744 56.413,1.002c21.047,4.751 39.142,13.316 51.377,23.32c7.493,6.131 9.514,8.823 12.775,15.778" style="fill:none;stroke:#000;stroke-width:8px;"/><path d="M157.651,92.637c1.78,3.526 2.644,7.194 2.447,10.934c-0.568,10.771 -9.817,20.066 -24.302,26.381c-14.495,6.32 -34.23,9.654 -55.777,8.519c-21.547,-1.136 -40.827,-6.531 -54.573,-14.334c-13.751,-7.804 -22.158,-18.031 -21.399,-28.79c0.646,-9.147 4.767,-11.89 8.957,-16.349" style="fill:none;stroke:#000;stroke-width:8px;"/><path d="M116.511,66.738c-0.76,4.464 -5.067,7.882 -11.408,9.807c-6.347,1.926 -14.732,2.353 -23.655,0.823c-8.917,-1.522 -16.69,-4.711 -22.033,-8.628c-5.348,-3.922 -8.271,-8.581 -7.511,-13.039c0.766,-4.464 5.073,-7.882 11.419,-9.807c6.346,-1.921 14.727,-2.353 23.644,-0.827c8.923,1.526 16.69,4.715 22.038,8.637c5.344,3.922 8.272,8.58 7.506,13.034Z" style="fill:none;stroke:#000;stroke-width:8px;"/><path d="M82.927,4l-0,51.468" style="fill:none;stroke:#000;stroke-width:8px;"/><path d="M82.927,138.547l-0,54.938" style="fill:none;stroke:#000;stroke-width:8px;"/><path d="M136.971,75.157c42.959,-11.508 52.449,-15.939 95.403,-27.448" style="fill:none;stroke:#000;stroke-width:8.33px;"/><path d="M136.971,69.771c2.976,0 5.386,2.415 5.386,5.386c0,2.976 -2.41,5.381 -5.386,5.381c-2.971,0 -5.386,-2.405 -5.386,-5.381c0,-2.971 2.415,-5.386 5.386,-5.386Z" style="fill:none;stroke:#000;stroke-width:8.33px;stroke-linecap:butt;stroke-linejoin:miter;"/></svg>