<?xml version="1.0" encoding="UTF-8" standalone="no"?><!DOCTYPE svg PUBLIC "-//W3C//DTD SVG 1.1//EN" "http://www.w3.org/Graphics/SVG/1.1/DTD/svg11.dtd"><svg width="100%" height="100%" viewBox="0 0 186 178" version="1.1" xmlns="http://www.w3.org/2000/svg" xmlns:xlink="http://www.w3.org/1999/xlink" xml:space="preserve" xmlns:serif="http://www.serif.com/" style="fill-rule:evenodd;clip-rule:evenodd;stroke-linecap:round;stroke-linejoin:round;stroke-miterlimit:2;"><path d="M92.99,113.179l-0,60.654" style="fill:none;stroke:#000;stroke-width:8px;"/><path d="M92.99,48.379l-0,-44.379" style="fill:none;stroke:#000;stroke-width:8px;"/><path d="M4.29,82.046c1.958,12.245 13.662,21.741 31.004,27.2c17.333,5.458 40.304,6.862 64.8,2.941c24.496,-3.921 45.875,-12.437 60.642,-23.037c14.762,-10.596 22.916,-23.275 20.954,-35.525c-1.959,-12.246 -13.667,-21.742 -31.004,-27.196c-17.334,-5.454 -40.305,-6.867 -64.8,-2.942c-24.496,3.921 -45.875,12.438 -60.642,23.034c-14.767,10.595 -22.921,23.275 -20.954,35.525Z" style="fill:none;stroke:#000;stroke-width:8px;"/><path d="M65.173,57.254c0.617,3.837 4.288,6.821 9.721,8.529c5.437,1.708 12.642,2.154 20.321,0.921c7.683,-1.229 14.387,-3.9 19.016,-7.221c4.63,-3.321 7.184,-7.296 6.571,-11.137c-0.612,-3.842 -4.287,-6.821 -9.725,-8.53c-5.433,-1.712 -12.637,-2.158 -20.316,-0.925c-7.68,1.23 -14.388,3.905 -19.013,7.225c-4.633,3.321 -7.192,7.3 -6.575,11.138Z" style="fill:none;stroke:#000;stroke-width:8px;"/></svg>