<?xml version="1.0" encoding="UTF-8" standalone="no"?><!DOCTYPE svg PUBLIC "-//W3C//DTD SVG 1.1//EN" "http://www.w3.org/Graphics/SVG/1.1/DTD/svg11.dtd"><svg width="100%" height="100%" viewBox="0 0 209 210" version="1.1" xmlns="http://www.w3.org/2000/svg" xmlns:xlink="http://www.w3.org/1999/xlink" xml:space="preserve" xmlns:serif="http://www.serif.com/" style="fill-rule:evenodd;clip-rule:evenodd;stroke-linecap:round;stroke-linejoin:round;stroke-miterlimit:2;"><path d="M46.163,104.371l14.017,-1.595" style="fill:none;stroke:#000;stroke-width:8.33px;"/><path d="M49.918,136.937l13.978,-1.595" style="fill:none;stroke:#000;stroke-width:8.33px;"/><path d="M60.18,102.776c2.252,-0.258 4.496,1.33 6.303,4.111c1.813,2.781 3.187,6.744 3.698,11.242c0.516,4.499 0.066,8.675 -1.073,11.792c-1.134,3.114 -2.961,5.168 -5.212,5.421" style="fill:none;stroke:#000;stroke-width:8.33px;"/><path d="M46.158,104.37c-2.247,0.258 -4.074,2.313 -5.213,5.425c-1.139,3.118 -1.584,7.295 -1.073,11.793c0.512,4.493 1.89,8.462 3.698,11.242c1.808,2.776 4.056,4.369 6.302,4.115" style="fill:none;stroke:#000;stroke-width:8.33px;"/><path d="M32.384,175.583c-9.088,-18.17 -14.709,-43.274 -14.709,-71.004c0,-27.729 5.621,-52.833 14.709,-71c9.083,-18.17 21.633,-29.412 35.5,-29.412c13.862,-0 26.412,11.237 35.5,29.412c9.087,18.167 14.704,43.271 14.704,71c-0,27.73 -5.621,52.834 -14.704,71.004c-9.088,18.167 -21.638,29.409 -35.5,29.409" style="fill:none;stroke:#000;stroke-width:8.33px;"/><path d="M67.884,4.167l86.458,-0" style="fill:none;stroke:#000;stroke-width:8.33px;"/><path d="M68.171,204.992l86.171,-0" style="fill:none;stroke:#000;stroke-width:8.33px;"/><path d="M154.342,4.167c13.867,-0 26.417,11.237 35.504,29.412c9.088,18.167 14.704,43.271 14.704,71c0,27.73 -5.616,52.834 -14.704,71.004c-9.087,18.167 -21.637,29.409 -35.504,29.409" style="fill:none;stroke:#000;stroke-width:8.33px;"/><path d="M118.088,104.579l86.462,0" style="fill:none;stroke:#000;stroke-width:8.33px;"/><path d="M57.83,138.257l5.912,49.652" style="fill:none;stroke:#000;stroke-width:8.33px;"/><path d="M4.167,204.992l68.029,-0" style="fill:none;stroke:#000;stroke-width:8.33px;"/><path d="M4.167,204.992c21.246,-5.696 38.329,-11.388 59.575,-17.079" style="fill:none;stroke:#000;stroke-width:8.33px;"/><path d="M103.384,33.575l86.462,0" style="fill:none;stroke:#000;stroke-width:8.33px;"/><path d="M103.384,175.583l86.462,0" style="fill:none;stroke:#000;stroke-width:8.33px;"/></svg>