<?xml version="1.0" encoding="UTF-8" standalone="no"?><!DOCTYPE svg PUBLIC "-//W3C//DTD SVG 1.1//EN" "http://www.w3.org/Graphics/SVG/1.1/DTD/svg11.dtd"><svg width="100%" height="100%" viewBox="0 0 184 194" version="1.1" xmlns="http://www.w3.org/2000/svg" xmlns:xlink="http://www.w3.org/1999/xlink" xml:space="preserve" xmlns:serif="http://www.serif.com/" style="fill-rule:evenodd;clip-rule:evenodd;stroke-linecap:round;stroke-linejoin:round;stroke-miterlimit:2;"><path d="M32.05,26.009c-2.718,10.148 3.046,21.535 14.565,31.753c11.519,10.213 28.792,19.247 49.087,24.688c20.294,5.44 39.774,6.245 54.856,3.163c15.082,-3.087 25.771,-10.071 28.488,-20.219c2.723,-10.152 -3.046,-21.539 -14.56,-31.752c-11.519,-10.214 -28.792,-19.253 -49.092,-24.688c-20.289,-5.441 -39.774,-6.25 -54.856,-3.163c-15.082,3.087 -25.766,10.066 -28.488,20.218Z" style="fill:none;stroke:#000;stroke-width:8px;"/><path d="M32.05,26.009l-27.385,102.202" style="fill:none;stroke:#000;stroke-width:8px;"/><path d="M179.046,65.394l-27.385,102.207" style="fill:none;stroke:#000;stroke-width:8px;"/><path d="M4.665,128.211c-2.718,10.153 3.046,21.545 14.56,31.758c11.519,10.213 28.792,19.252 49.092,24.688c20.294,5.44 39.774,6.25 54.851,3.163c15.082,-3.087 25.776,-10.067 28.493,-20.219" style="fill:none;stroke:#000;stroke-width:8px;"/><path d="M46.615,57.762l-27.39,102.207" style="fill:none;stroke:#000;stroke-width:8px;"/><path d="M150.558,85.613l-27.39,102.207" style="fill:none;stroke:#000;stroke-width:8px;"/><path d="M95.702,82.45l-27.385,102.207" style="fill:none;stroke:#000;stroke-width:8px;"/></svg>