<?xml version="1.0" encoding="UTF-8" standalone="no"?><!DOCTYPE svg PUBLIC "-//W3C//DTD SVG 1.1//EN" "http://www.w3.org/Graphics/SVG/1.1/DTD/svg11.dtd"><svg width="100%" height="100%" viewBox="0 0 195 278" version="1.1" xmlns="http://www.w3.org/2000/svg" xmlns:xlink="http://www.w3.org/1999/xlink" xml:space="preserve" xmlns:serif="http://www.serif.com/" style="fill-rule:evenodd;clip-rule:evenodd;stroke-linecap:round;stroke-linejoin:round;stroke-miterlimit:2;"><path d="M173.296,41.983c-0,10.488 -8.505,19.984 -22.255,26.859c-13.745,6.874 -32.737,11.124 -53.716,11.124c-20.979,0 -39.975,-4.25 -53.721,-11.124c-13.746,-6.875 -22.25,-16.371 -22.25,-26.859c-0,-10.492 8.504,-19.987 22.25,-26.858c13.746,-6.875 32.742,-11.125 53.721,-11.125c20.979,-0 39.971,4.25 53.716,11.125c13.75,6.871 22.255,16.366 22.255,26.858Z" style="fill:none;stroke:#000;stroke-width:8px;"/><path d="M173.296,41.983l-0,135.321" style="fill:none;stroke:#000;stroke-width:8px;"/><path d="M21.354,41.983l-0,135.321" style="fill:none;stroke:#000;stroke-width:8px;"/><path d="M173.296,177.304c-0,10.492 -8.505,19.988 -22.255,26.862c-13.745,6.875 -32.737,11.125 -53.716,11.125c-20.979,0 -39.975,-4.254 -53.721,-11.125c-13.746,-6.874 -22.25,-16.37 -22.25,-26.862" style="fill:none;stroke:#000;stroke-width:8px;"/><path d="M151.046,68.842l-0,135.324" style="fill:none;stroke:#000;stroke-width:8px;"/><path d="M43.604,68.842l-0,134.645" style="fill:none;stroke:#000;stroke-width:8px;"/><path d="M97.325,79.971l-0,135.32" style="fill:none;stroke:#000;stroke-width:8px;"/><path d="M21.35,177.304c-0,43.929 -0.704,35.087 -17.35,66.146" style="fill:none;stroke:#000;stroke-width:8px;"/><path d="M97.325,215.291l-0,58.396" style="fill:none;stroke:#000;stroke-width:8px;"/><path d="M173.296,177.304c-0,43.929 0.708,35.087 17.354,66.146" style="fill:none;stroke:#000;stroke-width:8px;"/></svg>