<?xml version="1.0" encoding="UTF-8" standalone="no"?><!DOCTYPE svg PUBLIC "-//W3C//DTD SVG 1.1//EN" "http://www.w3.org/Graphics/SVG/1.1/DTD/svg11.dtd"><svg width="100%" height="100%" viewBox="0 0 237 191" version="1.1" xmlns="http://www.w3.org/2000/svg" xmlns:xlink="http://www.w3.org/1999/xlink" xml:space="preserve" xmlns:serif="http://www.serif.com/" style="fill-rule:evenodd;clip-rule:evenodd;stroke-linecap:round;stroke-linejoin:round;stroke-miterlimit:2;"><path d="M160.783,80.253c-3.788,6.161 -10.553,11.675 -19.442,16.125c-14.133,7.063 -33.675,11.442 -55.247,11.442c-21.577,-0 -41.11,-4.379 -55.252,-11.442c-14.142,-7.069 -22.884,-16.838 -22.884,-27.629c0,-10.786 8.742,-20.554 22.884,-27.623c14.142,-7.074 33.675,-11.442 55.252,-11.442c21.572,-0 41.11,4.368 55.247,11.442c10.971,5.481 18.696,12.592 21.605,20.54" style="fill:none;stroke:#000;stroke-width:8px;"/><path d="M118.866,61.115c-0,4.525 -3.67,8.623 -9.603,11.585c-5.928,2.966 -14.123,4.801 -23.169,4.801c-9.051,-0 -17.246,-1.835 -23.174,-4.801c-5.928,-2.962 -9.598,-7.06 -9.598,-11.585c0,-4.521 3.67,-8.623 9.598,-11.589c5.928,-2.962 14.123,-4.792 23.174,-4.792c9.046,-0 17.241,1.83 23.169,4.792c5.933,2.966 9.603,7.068 9.603,11.589Z" style="fill:none;stroke:#000;stroke-width:8px;"/><path d="M86.094,4l-0,51.472" style="fill:none;stroke:#000;stroke-width:8px;"/><path d="M86.017,124.856l0.077,61.656" style="fill:none;stroke:#000;stroke-width:8px;"/><path d="M140.956,67.756c42.954,-11.509 48.208,-12.911 91.167,-24.425" style="fill:none;stroke:#000;stroke-width:8.33px;"/><path d="M140.956,62.375c2.976,-0 5.386,2.41 5.386,5.381c-0,2.976 -2.41,5.386 -5.386,5.386c-2.976,-0 -5.386,-2.41 -5.386,-5.386c-0,-2.971 2.41,-5.381 5.386,-5.381Z" style="fill:none;stroke:#000;stroke-width:8.33px;stroke-linecap:butt;stroke-linejoin:miter;"/><path d="M160.616,80.509c-2.497,10.647 -10.056,21.422 -23.423,28.89c-14.411,8.05 -31.417,11.888 -52.956,13.165c-21.539,1.276 -41.546,-2.838 -56.007,-7.883c-14.466,-5.044 -23.674,-12.655 -24.206,-21.629c-0.266,-4.489 1.664,-8.894 5.377,-13.016" style="fill:none;stroke:#000;stroke-width:8px;"/></svg>