<?xml version="1.0" encoding="UTF-8" standalone="no"?><!DOCTYPE svg PUBLIC "-//W3C//DTD SVG 1.1//EN" "http://www.w3.org/Graphics/SVG/1.1/DTD/svg11.dtd"><svg width="100%" height="100%" viewBox="0 0 292 161" version="1.1" xmlns="http://www.w3.org/2000/svg" xmlns:xlink="http://www.w3.org/1999/xlink" xml:space="preserve" xmlns:serif="http://www.serif.com/" style="fill-rule:evenodd;clip-rule:evenodd;stroke-linecap:round;stroke-linejoin:round;stroke-miterlimit:2;"><path d="M104.672,29.788c1.856,6.918 -2.074,14.682 -9.927,21.649c-7.854,6.963 -19.631,13.122 -33.468,16.831c-13.84,3.71 -27.118,4.259 -37.401,2.157c-10.282,-2.105 -17.57,-6.867 -19.423,-13.785c-1.853,-6.922 2.077,-14.686 9.931,-21.649c7.853,-6.963 19.627,-13.126 33.467,-16.832c13.837,-3.709 27.115,-4.261 37.398,-2.157c10.282,2.105 17.57,6.864 19.423,13.786Z" style="fill:none;stroke:#000;stroke-width:8px;"/><path d="M104.675,29.788l18.671,69.681" style="fill:none;stroke:#000;stroke-width:8px;"/><path d="M4.453,56.64l18.671,69.685" style="fill:none;stroke:#000;stroke-width:8px;"/><path d="M123.346,99.469c1.853,6.922 -2.077,14.689 -9.93,21.652c-7.85,6.963 -19.631,13.126 -33.468,16.832c-13.836,3.709 -27.118,4.262 -37.4,2.157c-10.28,-2.105 -17.567,-6.864 -19.424,-13.785" style="fill:none;stroke:#000;stroke-width:8px;"/><path d="M94.745,51.437l18.671,69.684" style="fill:none;stroke:#000;stroke-width:8px;"/><path d="M23.876,70.425l18.675,69.685" style="fill:none;stroke:#000;stroke-width:8px;"/><path d="M61.277,68.268l18.671,69.685" style="fill:none;stroke:#000;stroke-width:8px;"/><path d="M165.437,22.12c-2.237,8.354 2.508,17.729 11.992,26.142c9.483,8.408 23.704,15.846 40.412,20.325c16.709,4.479 32.746,5.142 45.163,2.604c12.416,-2.542 21.216,-8.292 23.454,-16.646c2.242,-8.358 -2.508,-17.733 -11.988,-26.141c-9.483,-8.409 -23.704,-15.851 -40.416,-20.326c-16.704,-4.479 -32.746,-5.145 -45.163,-2.604c-12.416,2.542 -21.212,8.288 -23.454,16.646Z" style="fill:none;stroke:#000;stroke-width:8px;"/><path d="M165.437,22.12l-22.546,84.142" style="fill:none;stroke:#000;stroke-width:8px;"/><path d="M286.458,54.545l-22.546,84.146" style="fill:none;stroke:#000;stroke-width:8px;"/><path d="M142.891,106.262c-2.237,8.358 2.509,17.737 11.988,26.146c9.483,8.408 23.704,15.85 40.416,20.325c16.709,4.479 32.746,5.146 45.159,2.604c12.416,-2.542 21.221,-8.288 23.458,-16.646" style="fill:none;stroke:#000;stroke-width:8px;"/><path d="M177.429,48.262l-22.55,84.146" style="fill:none;stroke:#000;stroke-width:8px;"/><path d="M263.004,71.191l-22.55,84.146" style="fill:none;stroke:#000;stroke-width:8px;"/><path d="M217.841,68.587l-22.546,84.146" style="fill:none;stroke:#000;stroke-width:8px;"/></svg>