<?xml version="1.0" encoding="UTF-8" standalone="no"?><!DOCTYPE svg PUBLIC "-//W3C//DTD SVG 1.1//EN" "http://www.w3.org/Graphics/SVG/1.1/DTD/svg11.dtd"><svg width="100%" height="100%" viewBox="0 0 213 193" version="1.1" xmlns="http://www.w3.org/2000/svg" xmlns:xlink="http://www.w3.org/1999/xlink" xml:space="preserve" xmlns:serif="http://www.serif.com/" style="fill-rule:evenodd;clip-rule:evenodd;stroke-linecap:round;stroke-linejoin:round;stroke-miterlimit:2;"><path d="M25.641,31.07c-13.268,16.619 -21.474,39.579 -21.474,64.94c-0,25.361 8.206,48.321 21.474,64.936c13.262,16.618 31.585,26.9 51.831,26.9c20.239,-0 38.562,-10.278 51.83,-26.9c13.268,-16.615 21.468,-39.575 21.468,-64.936c0,-25.361 -8.206,-48.321 -21.468,-64.94c-13.268,-16.615 -31.591,-26.896 -51.83,-26.896c-0,-0 -16.181,-0.34 -24.298,3.717" style="fill:none;stroke:#000;stroke-width:8.33px;"/><path d="M77.472,4.167l57.986,-0" style="fill:none;stroke:#000;stroke-width:8.33px;"/><path d="M77.891,187.839l57.567,-0" style="fill:none;stroke:#000;stroke-width:8.33px;"/><path d="M135.458,4.167c20.246,-0 38.569,10.278 51.837,26.9c13.267,16.615 21.468,39.575 21.468,64.936c-0,25.361 -8.201,48.321 -21.468,64.939c-13.268,16.615 -31.591,26.897 -51.837,26.897" style="fill:none;stroke:#000;stroke-width:8.33px;"/><path d="M150.77,96.003l57.993,-0" style="fill:none;stroke:#000;stroke-width:8.33px;"/><path d="M129.302,31.063l57.993,0" style="fill:none;stroke:#000;stroke-width:8.33px;"/><path d="M129.302,160.942l57.993,0" style="fill:none;stroke:#000;stroke-width:8.33px;"/></svg>