<?xml version="1.0" encoding="UTF-8" standalone="no"?><!DOCTYPE svg PUBLIC "-//W3C//DTD SVG 1.1//EN" "http://www.w3.org/Graphics/SVG/1.1/DTD/svg11.dtd"><svg width="100%" height="100%" viewBox="0 0 216 171" version="1.1" xmlns="http://www.w3.org/2000/svg" xmlns:xlink="http://www.w3.org/1999/xlink" xml:space="preserve" xmlns:serif="http://www.serif.com/" style="fill-rule:evenodd;clip-rule:evenodd;stroke-linecap:round;stroke-linejoin:round;stroke-miterlimit:2;"><path d="M107.528,137.041l0,29.807" style="fill:none;stroke:#000;stroke-width:8px;"/><path d="M107.528,58.079l0,-54.079" style="fill:none;stroke:#000;stroke-width:8px;"/><path d="M210.722,95.749c-2.284,14.245 -15.901,25.297 -36.07,31.638c-20.17,6.349 -46.895,7.992 -75.386,3.429c-28.5,-4.567 -53.371,-14.476 -70.549,-26.805c-17.178,-12.324 -26.662,-27.075 -24.382,-41.321c2.283,-14.25 15.905,-25.301 36.07,-31.638c20.169,-6.345 46.89,-7.992 75.39,-3.429c28.495,4.567 53.367,14.472 70.544,26.801c17.178,12.324 26.666,27.075 24.383,41.325Z" style="fill:none;stroke:#000;stroke-width:8px;"/><path d="M141.42,68.891c-0.75,4.68 -5.221,8.309 -11.846,10.392c-6.625,2.083 -15.4,2.625 -24.758,1.125c-9.363,-1.496 -17.529,-4.754 -23.171,-8.8c-5.642,-4.05 -8.758,-8.892 -8.008,-13.571c0.75,-4.679 5.225,-8.308 11.845,-10.396c6.625,-2.083 15.405,-2.62 24.763,-1.125c9.358,1.5 17.525,4.755 23.167,8.8c5.641,4.05 8.758,8.896 8.008,13.575Z" style="fill:none;stroke:#000;stroke-width:8px;"/></svg>