<?xml version="1.0" encoding="UTF-8" standalone="no"?><!DOCTYPE svg PUBLIC "-//W3C//DTD SVG 1.1//EN" "http://www.w3.org/Graphics/SVG/1.1/DTD/svg11.dtd"><svg width="100%" height="100%" viewBox="0 0 197 193" version="1.1" xmlns="http://www.w3.org/2000/svg" xmlns:xlink="http://www.w3.org/1999/xlink" xml:space="preserve" xmlns:serif="http://www.serif.com/" style="fill-rule:evenodd;clip-rule:evenodd;stroke-linecap:round;stroke-linejoin:round;stroke-miterlimit:2;"><path d="M48.089,107.723l12.735,2.08" style="fill:none;stroke:#000;stroke-width:8.33px;"/><path d="M43.302,137.321l12.701,2.069" style="fill:none;stroke:#000;stroke-width:8.33px;"/><path d="M60.824,109.803c2.046,0.332 3.626,2.287 4.526,5.184c0.905,2.898 1.129,6.728 0.462,10.814c-0.664,4.088 -2.098,7.652 -3.875,10.113c-1.772,2.459 -3.89,3.813 -5.934,3.476" style="fill:none;stroke:#000;stroke-width:8.33px;"/><path d="M48.085,107.721c-2.042,-0.33 -4.16,1.024 -5.936,3.481c-1.777,2.46 -3.207,6.026 -3.875,10.112c-0.665,4.082 -0.439,7.918 0.462,10.814c0.902,2.893 2.484,4.854 4.524,5.189" style="fill:none;stroke:#000;stroke-width:8.33px;"/><path d="M21.041,160.942c-10.425,-16.618 -16.874,-39.578 -16.874,-64.939c-0,-25.361 6.449,-48.321 16.874,-64.936c10.422,-16.619 24.82,-26.9 40.729,-26.9c15.904,-0 30.302,10.278 40.728,26.9c10.426,16.615 16.87,39.575 16.87,64.936c0,25.361 -6.449,48.321 -16.87,64.939c-10.426,16.615 -24.824,26.897 -40.728,26.897c-0,-0 -12.715,0.34 -19.093,-3.717" style="fill:none;stroke:#000;stroke-width:8.33px;"/><path d="M61.77,4.167l72.516,-0" style="fill:none;stroke:#000;stroke-width:8.33px;"/><path d="M62.1,187.839l72.186,-0" style="fill:none;stroke:#000;stroke-width:8.33px;"/><path d="M134.286,4.167c15.909,-0 30.307,10.278 40.733,26.9c10.426,16.615 16.87,39.575 16.87,64.936c0,25.361 -6.444,48.321 -16.87,64.939c-10.426,16.615 -24.824,26.897 -40.733,26.897" style="fill:none;stroke:#000;stroke-width:8.33px;"/><path d="M119.368,96.003l72.521,-0" style="fill:none;stroke:#000;stroke-width:8.33px;"/><path d="M50,138.986l-7.134,45.171" style="fill:none;stroke:#000;stroke-width:8.33px;"/><path d="M102.498,31.063l72.521,0" style="fill:none;stroke:#000;stroke-width:8.33px;"/><path d="M102.498,160.942l72.521,0" style="fill:none;stroke:#000;stroke-width:8.33px;"/></svg>