<?xml version="1.0" encoding="UTF-8" standalone="no"?><!DOCTYPE svg PUBLIC "-//W3C//DTD SVG 1.1//EN" "http://www.w3.org/Graphics/SVG/1.1/DTD/svg11.dtd"><svg width="100%" height="100%" viewBox="0 0 176 145" version="1.1" xmlns="http://www.w3.org/2000/svg" xmlns:xlink="http://www.w3.org/1999/xlink" xml:space="preserve" xmlns:serif="http://www.serif.com/" style="fill-rule:evenodd;clip-rule:evenodd;stroke-linecap:round;stroke-linejoin:round;stroke-miterlimit:2;"><path d="M82.477,75.653l76.283,-15.321c8.904,-1.791 15.504,-0.275 12.354,12.017l-7.904,30.792c-2.796,10.896 -9.579,14.696 -19.129,17.137l-77.979,19.954c-10.967,2.805 -18.05,-3.375 -15.442,-13.925l7.679,-31.05c2.592,-10.495 13.955,-17.558 24.138,-19.604Z" style="fill:none;stroke:#000;stroke-width:8px;"/><path d="M168.835,60.674l-90.812,-47.425c-6.367,-3.325 -9.492,-3.475 -16.2,-2.296l-39.679,7.009c-5.896,1.041 -12.555,5.2 -13.855,11.254l-4.033,18.687c-0.483,2.234 -0.267,4.117 0.512,5.534l46.709,82.591" style="fill:none;stroke:#000;stroke-width:8px;"/><path d="M156.102,114.941l-50.779,-43.875" style="fill:none;stroke:#000;stroke-width:8px;"/><path d="M51.606,12.762l-11.104,-6.092c-5.671,-2.963 -9.496,-3.029 -13.929,-2.246l-10.938,1.933c-4.729,0.834 -7.696,3.559 -8.533,7.438l-0.609,2.833c-0.679,3.142 0.551,6.617 2.596,10.242" style="fill:none;stroke:#000;stroke-width:8px;"/></svg>