<?xml version="1.0" encoding="UTF-8" standalone="no"?><!DOCTYPE svg PUBLIC "-//W3C//DTD SVG 1.1//EN" "http://www.w3.org/Graphics/SVG/1.1/DTD/svg11.dtd"><svg width="100%" height="100%" viewBox="0 0 199 204" version="1.1" xmlns="http://www.w3.org/2000/svg" xmlns:xlink="http://www.w3.org/1999/xlink" xml:space="preserve" xmlns:serif="http://www.serif.com/" style="fill-rule:evenodd;clip-rule:evenodd;stroke-linecap:round;stroke-linejoin:round;stroke-miterlimit:2;"><path d="M194.664,73.178c-0,13.16 -10.666,25.079 -27.921,33.704c-17.25,8.63 -41.082,13.966 -67.408,13.966c-26.327,0 -50.165,-5.336 -67.414,-13.966c-17.249,-8.625 -27.921,-20.544 -27.921,-33.704c-0,-13.166 10.672,-25.079 27.921,-33.71c17.249,-8.619 41.087,-13.96 67.414,-13.96c26.326,-0 50.158,5.341 67.408,13.96c17.249,8.631 27.921,20.544 27.921,33.71Z" style="fill:none;stroke:#000;stroke-width:8px;"/><path d="M187.176,92.127c4.82,5.695 7.488,11.971 7.488,18.554c-0,13.16 -10.666,25.079 -27.921,33.704c-17.25,8.63 -41.082,13.96 -67.408,13.96c-26.327,0 -50.165,-5.336 -67.414,-13.96c-17.249,-8.625 -27.921,-20.544 -27.921,-33.704c-0,-6.583 2.668,-12.853 7.493,-18.554" style="fill:none;stroke:#000;stroke-width:8px;"/><path d="M139.32,63.863c0,5.522 -4.478,10.521 -11.71,14.141c-7.239,3.613 -17.238,5.852 -28.275,5.852c-11.044,-0 -21.043,-2.239 -28.275,-5.852c-7.239,-3.62 -11.711,-8.619 -11.711,-14.141c0,-5.522 4.472,-10.521 11.711,-14.135c7.232,-3.619 17.231,-5.858 28.275,-5.858c11.037,0 21.036,2.239 28.275,5.858c7.232,3.614 11.71,8.613 11.71,14.135Z" style="fill:none;stroke:#000;stroke-width:8px;"/><path d="M99.334,4l0,51.468" style="fill:none;stroke:#000;stroke-width:8px;"/><path d="M99.334,161.41l0,37.942" style="fill:none;stroke:#000;stroke-width:8px;"/></svg>