<?xml version="1.0" encoding="UTF-8" standalone="no"?><!DOCTYPE svg PUBLIC "-//W3C//DTD SVG 1.1//EN" "http://www.w3.org/Graphics/SVG/1.1/DTD/svg11.dtd"><svg width="100%" height="100%" viewBox="0 0 169 180" version="1.1" xmlns="http://www.w3.org/2000/svg" xmlns:xlink="http://www.w3.org/1999/xlink" xml:space="preserve" xmlns:serif="http://www.serif.com/" style="fill-rule:evenodd;clip-rule:evenodd;stroke-linecap:round;stroke-linejoin:round;stroke-miterlimit:2;"><path d="M16.286,94.106l57.425,15.006" style="fill:none;stroke:#000;stroke-width:8.33px;"/><path d="M58.896,10.425l32.107,32.107" style="fill:none;stroke:#000;stroke-width:8.33px;"/><path d="M11.306,112.243l59.282,15.489" style="fill:none;stroke:#000;stroke-width:8.33px;"/><path d="M45.959,23.357l21.451,21.452" style="fill:none;stroke:#000;stroke-width:8.33px;"/><path d="M19.772,133.891l47.506,12.414" style="fill:none;stroke:#000;stroke-width:8.33px;"/><path d="M42.388,45.644l12.261,12.265" style="fill:none;stroke:#000;stroke-width:8.33px;"/><path d="M35.286,157.38l60.827,15.895" style="fill:none;stroke:#000;stroke-width:8.33px;"/><path d="M96.113,173.275c25.767,6.733 52.246,-8.178 59.155,-33.302c5.68,-20.68 -3.658,-42.49 -22.716,-53.1l-45.744,-25.763" style="fill:none;stroke:#000;stroke-width:8.33px;"/><path d="M153.73,112.028c1.145,-1.379 2.211,-2.829 3.197,-4.349c9.304,-14.305 10.011,-32.942 1.141,-48.136l-25.085,-43.46" style="fill:none;stroke:#000;stroke-width:8.33px;stroke-linecap:butt;"/><path d="M41.064,139.454c-5.135,-1.341 -10.412,1.63 -11.791,6.638c-1.375,5.007 1.672,10.157 6.811,11.498" style="fill:none;stroke:#000;stroke-width:8.33px;"/><path d="M54.143,57.453c-3.572,-3.572 -9.362,-3.572 -12.933,-0c-2.28,2.28 -3.193,5.593 -2.396,8.719" style="fill:none;stroke:#000;stroke-width:8.33px;"/><path d="M24.753,115.754c-5.131,-1.341 -10.412,1.631 -11.787,6.642c-1.376,5.007 1.672,10.154 6.806,11.495" style="fill:none;stroke:#000;stroke-width:8.33px;"/><path d="M55.316,32.711c-3.571,-3.571 -9.365,-3.571 -12.928,-0c-3.576,3.571 -3.576,9.361 -0,12.933" style="fill:none;stroke:#000;stroke-width:8.33px;"/><path d="M16.286,94.106c-5.131,-1.341 -10.412,1.631 -11.787,6.638c-1.38,5.007 1.668,10.158 6.807,11.499" style="fill:none;stroke:#000;stroke-width:8.33px;"/><path d="M58.896,10.425c-3.576,-3.572 -9.362,-3.572 -12.937,-0c-3.568,3.571 -3.568,9.361 -0,12.932" style="fill:none;stroke:#000;stroke-width:8.33px;"/><path d="M34.721,79.485l63.768,16.664" style="fill:none;stroke:#000;stroke-width:8.33px;"/><path d="M81.182,6.849l44.345,44.345" style="fill:none;stroke:#000;stroke-width:8.33px;"/><path d="M34.721,79.485c-5.135,-1.341 -10.412,1.63 -11.791,6.642c-1.375,5.003 1.672,10.153 6.811,11.494" style="fill:none;stroke:#000;stroke-width:8.33px;"/><path d="M81.182,6.845c-3.571,-3.571 -9.361,-3.571 -12.933,0c-3.571,3.572 -3.571,9.362 0,12.933" style="fill:none;stroke:#000;stroke-width:8.33px;"/><path d="M86.808,61.106c-4.602,-2.591 -10.493,-1.052 -13.15,3.44c-2.112,3.563 -1.595,8.059 1.282,11.078" style="fill:none;stroke:#000;stroke-width:8.33px;"/><path d="M132.983,16.083c-2.524,-4.375 -8.117,-5.871 -12.489,-3.347c-3.478,2.01 -5.237,6.041 -4.344,9.957" style="fill:none;stroke:#000;stroke-width:8.33px;"/><path d="M74.936,75.628l23.553,20.521" style="fill:none;stroke:#000;stroke-width:8.33px;"/><path d="M116.15,22.693l9.377,28.501" style="fill:none;stroke:#000;stroke-width:8.33px;"/></svg>